<svg xmlns="http://www.w3.org/2000/svg" width="39.874" height="39.874" viewBox="0 0 39.874 39.874">
  <path id="picture_as_pdf_FILL0_wght400_GRAD0_opsz48" d="M16.511,26.379h1.844V22.242h2.392A1.79,1.79,0,0,0,22.591,20.4V18.006a1.79,1.79,0,0,0-1.844-1.844H16.511ZM18.355,20.4V18.006h2.392V20.4Zm6.43,5.981h4.187a1.814,1.814,0,0,0,1.3-.523,1.748,1.748,0,0,0,.548-1.321V18.006a1.748,1.748,0,0,0-.548-1.321,1.814,1.814,0,0,0-1.3-.523H24.784Zm1.844-1.844V18.006h2.343v6.529Zm6.629,1.844H35.1V22.242h2.492V20.4H35.1V18.006h2.492V16.162H33.258ZM12.972,37.893A3.066,3.066,0,0,1,9.981,34.9V6.991a2.869,2.869,0,0,1,.9-2.093A2.869,2.869,0,0,1,12.972,4H40.884a2.869,2.869,0,0,1,2.093.9,2.869,2.869,0,0,1,.9,2.093V34.9a3.066,3.066,0,0,1-2.991,2.991Zm0-2.991H40.884V6.991H12.972ZM6.991,43.874a2.869,2.869,0,0,1-2.093-.9A2.869,2.869,0,0,1,4,40.884V9.981H6.991v30.9h30.9v2.991ZM12.972,6.991v0Z" transform="translate(-4 -4)" fill="#ea0000"/>
</svg>
