<svg xmlns="http://www.w3.org/2000/svg" width="47.297" height="38.697" viewBox="0 0 47.297 38.697">
  <path id="computer_FILL0_wght400_GRAD0_opsz48-2" d="M3.612,44.7a1.613,1.613,0,1,1,0-3.225H47.684a1.613,1.613,0,1,1,0,3.225Zm3.762-6.45a3.094,3.094,0,0,1-2.257-.967,3.094,3.094,0,0,1-.967-2.257V9.225a3.094,3.094,0,0,1,.967-2.257A3.094,3.094,0,0,1,7.375,6H43.922a3.094,3.094,0,0,1,2.257.967,3.094,3.094,0,0,1,.967,2.257v25.8a3.306,3.306,0,0,1-3.225,3.225Zm0-3.225H43.922V9.225H7.375Zm0,0v0Z" transform="translate(-2 -6)" fill="#3c3c3c"/>
</svg>
