<svg xmlns="http://www.w3.org/2000/svg" width="41.093" height="32.874" viewBox="0 0 41.093 32.874">
  <path id="mail_FILL0_wght400_GRAD0_opsz48" d="M7.082,40.874a2.957,2.957,0,0,1-2.157-.925A2.957,2.957,0,0,1,4,37.792V11.082a2.957,2.957,0,0,1,.925-2.157A2.957,2.957,0,0,1,7.082,8H42.011a2.957,2.957,0,0,1,2.157.925,2.957,2.957,0,0,1,.925,2.157v26.71a3.16,3.16,0,0,1-3.082,3.082ZM24.546,25.362,7.082,13.907V37.792H42.011V13.907Zm0-3.082,17.259-11.2H7.339ZM7.082,13.907v0Z" transform="translate(-4 -8)" fill="#3c3c3c"/>
</svg>
