<svg xmlns="http://www.w3.org/2000/svg" width="77.483" height="63.395" viewBox="0 0 77.483 63.395">
  <path id="computer_FILL0_wght400_GRAD0_opsz48-2" d="M4.641,69.395a2.642,2.642,0,1,1,0-5.283h72.2a2.642,2.642,0,1,1,0,5.283ZM10.8,58.829a5.068,5.068,0,0,1-3.7-1.585,5.068,5.068,0,0,1-1.585-3.7V11.283a5.068,5.068,0,0,1,1.585-3.7A5.068,5.068,0,0,1,10.8,6H70.678a5.068,5.068,0,0,1,3.7,1.585,5.068,5.068,0,0,1,1.585,3.7V53.546a5.417,5.417,0,0,1-5.283,5.283Zm0-5.283H70.678V11.283H10.8Zm0,0v0Z" transform="translate(-2 -6)" fill="#ea0000"/>
</svg>
