<svg xmlns="http://www.w3.org/2000/svg" width="67.312" height="67.312" viewBox="0 0 67.312 67.312">
  <path id="picture_as_pdf_FILL0_wght400_GRAD0_opsz48" d="M25.119,41.779h3.113V34.8h4.039a3.021,3.021,0,0,0,3.113-3.113V27.643a3.021,3.021,0,0,0-3.113-3.113H25.119Zm3.113-10.1V27.643h4.039v4.039Zm10.854,10.1h7.068a3.063,3.063,0,0,0,2.188-.883,2.952,2.952,0,0,0,.926-2.23V27.643a2.952,2.952,0,0,0-.926-2.23,3.063,3.063,0,0,0-2.188-.883H39.086ZM42.2,38.666V27.643h3.955V38.666ZM53.39,41.779H56.5V34.8H60.71V31.682H56.5V27.643H60.71V24.53H53.39ZM19.145,61.215A5.176,5.176,0,0,1,14.1,56.167V9.048a4.843,4.843,0,0,1,1.515-3.534A4.843,4.843,0,0,1,19.145,4H66.264A4.843,4.843,0,0,1,69.8,5.515a4.843,4.843,0,0,1,1.515,3.534V56.167a5.176,5.176,0,0,1-5.048,5.048Zm0-5.048H66.264V9.048H19.145ZM9.048,71.312A4.843,4.843,0,0,1,5.515,69.8,4.843,4.843,0,0,1,4,66.263V14.1H9.048V66.263H61.215v5.048Zm10.1-62.263v0Z" transform="translate(-4 -4)" fill="#ea0000"/>
</svg>
