<svg xmlns="http://www.w3.org/2000/svg" width="77.265" height="61.812" viewBox="0 0 77.265 61.812">
  <path id="mail_FILL0_wght400_GRAD0_opsz48" d="M9.795,69.812a5.559,5.559,0,0,1-4.056-1.738A5.559,5.559,0,0,1,4,64.017V13.795A5.559,5.559,0,0,1,5.738,9.738,5.559,5.559,0,0,1,9.795,8H75.47a5.559,5.559,0,0,1,4.056,1.738,5.559,5.559,0,0,1,1.738,4.056V64.017a5.942,5.942,0,0,1-5.795,5.795ZM42.632,40.644,9.795,19.107v44.91H75.47V19.107Zm0-5.795L75.084,13.795H10.278ZM9.795,19.107v0Z" transform="translate(-4 -8)" fill="#ea0000"/>
</svg>
