<svg xmlns="http://www.w3.org/2000/svg" width="320" height="218" viewBox="0 0 320 218">
  <g id="Group_136" data-name="Group 136" transform="translate(-774 -2182)">
    <path id="image_FILL0_wght400_GRAD0_opsz48" d="M20,174a13.431,13.431,0,0,1-9.8-4.2A13.431,13.431,0,0,1,6,160V20a13.431,13.431,0,0,1,4.2-9.8A13.431,13.431,0,0,1,20,6H160a13.431,13.431,0,0,1,9.8,4.2A13.431,13.431,0,0,1,174,20V160a14.354,14.354,0,0,1-14,14Zm0-14H160V20H20Zm13.067-22.633h114.1l-34.3-45.733-30.8,39.9L60.367,101.9ZM20,160v0Z" transform="translate(848 2176)" fill="#dcdcdc"/>
    <text id="Mockup_example_of_pdf" data-name="Mockup example of pdf" transform="translate(774 2394)" fill="#dcdcdc" font-size="24" font-family="Helvetica"><tspan x="0" y="0">MOCKUP EXAMPLE OF PDF</tspan></text>
  </g>
</svg>
