<svg id="phone_icon" data-name="phone icon" xmlns="http://www.w3.org/2000/svg" xmlns:xlink="http://www.w3.org/1999/xlink" width="34" height="34" viewBox="0 0 34 34">
  <defs>
    <clipPath id="clip-path">
      <rect id="Rectangle_127" data-name="Rectangle 127" width="34" height="34" fill="none"/>
    </clipPath>
  </defs>
  <g id="Group_236" data-name="Group 236" clip-path="url(#clip-path)">
    <path id="Path_25" data-name="Path 25" d="M17.7,1A15.3,15.3,0,0,1,33,16.3" fill="none" stroke="#000" stroke-linecap="round" stroke-linejoin="round" stroke-width="2"/>
    <path id="Path_26" data-name="Path 26" d="M17.7,5.174A11.13,11.13,0,0,1,28.826,16.3" fill="none" stroke="#000" stroke-linecap="round" stroke-linejoin="round" stroke-width="2"/>
    <path id="Path_27" data-name="Path 27" d="M17.7,9.348a6.957,6.957,0,0,1,6.957,6.957" fill="none" stroke="#000" stroke-linecap="round" stroke-linejoin="round" stroke-width="2"/>
    <path id="Path_28" data-name="Path 28" d="M8.976,25.024C1.749,17.8-1.087,8.917,2.642,5.188a28.032,28.032,0,0,1,3.17-2.524,1.479,1.479,0,0,1,2.107.419L12.36,10.13a1.481,1.481,0,0,1-.491,2.06L9.264,13.752a1.478,1.478,0,0,0-.458,2.117,39.7,39.7,0,0,0,4.324,5,39.7,39.7,0,0,0,5,4.324,1.478,1.478,0,0,0,2.117-.458l1.562-2.6a1.482,1.482,0,0,1,2.06-.491l7.047,4.441a1.479,1.479,0,0,1,.419,2.107,28.032,28.032,0,0,1-2.524,3.17C25.083,35.087,16.2,32.251,8.976,25.024Z" fill="none" stroke="#000" stroke-linejoin="round" stroke-width="2"/>
  </g>
</svg>
